<svg xmlns="http://www.w3.org/2000/svg" viewBox="0 0 24 24" width="24" height="24" fill="none"><circle cx="12" cy="12" r="12" fill="#22A079"></circle><path fill="#fff" fill-rule="evenodd" d="M13.624 8.041v1.994l.002.002c3.639.17 6.374.907 6.374 1.785 0 .88-2.735 1.615-6.374 1.785V20h-3.242v-6.393C6.742 13.435 4 12.701 4 11.82c0-.88 2.74-1.614 6.384-1.785V8.041H5.9V5h12.209v3.041h-4.485Zm0 5.018v.004c3.213-.147 5.61-.716 5.61-1.398 0-.682-2.395-1.252-5.61-1.399v2.227c-.093.01-.594.052-1.594.052-.834 0-1.438-.036-1.648-.052v-2.229c-3.218.145-5.623.717-5.623 1.399 0 .684 2.402 1.253 5.623 1.398v-.002c.208.01.795.035 1.633.035a25.66 25.66 0 0 0 1.61-.035Z" clip-rule="evenodd"></path></svg>
