<svg width="24" height="24" viewBox="0 0 40 40" fill="none" xmlns="http://www.w3.org/2000/svg"><g clip-path="url(#clip0_2667_22878)"><path d="M20 40C31.0457 40 40 31.0457 40 20C40 8.9543 31.0457 0 20 0C8.9543 0 0 8.9543 0 20C0 31.0457 8.9543 40 20 40Z" fill="#2775CA"></path><path d="M16.7403 31.8837C16.7403 32.317 16.4453 32.462 16.0003 32.462C10.5187 30.7237 6.66699 25.7954 6.66699 20.0004C6.66699 14.2037 10.5187 9.27704 16.0003 7.5387C16.4453 7.3937 16.7403 7.6837 16.7403 8.11704V9.13204C16.7426 9.28245 16.7021 9.43041 16.6237 9.55874C16.5452 9.68708 16.4319 9.79051 16.297 9.85704C12.0003 11.4504 9.03699 15.3637 9.03699 20.0004C9.03699 24.637 12.1487 28.6954 16.297 30.1437C16.5937 30.2887 16.7403 30.5787 16.7403 30.8687V31.8837Z" fill="white"></path><path d="M21.1854 28.2597C21.1854 28.5497 20.8888 28.8397 20.5938 28.8397H19.4088C19.1121 28.8397 18.8154 28.5497 18.8154 28.2597V26.5214C16.4454 26.2314 15.2604 24.9264 14.8154 23.043C14.8154 22.753 14.9638 22.463 15.2604 22.463H16.5938C16.8888 22.463 17.0371 22.608 17.1854 22.8964C17.4821 23.913 18.0754 24.7814 20.0004 24.7814C21.4821 24.7814 22.5188 24.058 22.5188 22.898C22.5188 21.738 21.9271 21.303 19.8521 21.0147C16.7404 20.5797 15.2604 19.7097 15.2604 17.2464C15.2604 15.363 16.7404 13.913 18.8154 13.623V11.8847C18.8154 11.5947 19.1121 11.3047 19.4088 11.3047H20.5921C20.8888 11.3047 21.1854 11.5947 21.1854 11.8847V13.623C22.9638 13.913 24.1488 14.928 24.4454 16.523C24.4454 16.8114 24.2954 17.1014 24.0004 17.1014H22.8154C22.5188 17.1014 22.3704 16.9564 22.2221 16.668C21.9271 15.6514 21.1854 15.218 19.8521 15.218C18.3704 15.218 17.6304 15.9414 17.6304 16.9564C17.6304 17.9714 18.0754 18.5514 20.2971 18.8397C23.4071 19.2747 24.8888 20.1447 24.8888 22.608C24.8888 24.4914 23.4071 26.0864 21.1854 26.5214V28.2597Z" fill="white"></path><path d="M23.9999 32.4614C23.5549 32.6064 23.2599 32.3164 23.2599 31.8831V30.8681C23.2599 30.5781 23.4065 30.2881 23.7032 30.1431C27.9999 28.5498 30.9632 24.6364 30.9632 19.9998C30.9632 15.3631 27.8515 11.3048 23.7032 9.85642C23.5683 9.7899 23.455 9.68646 23.3765 9.55813C23.298 9.42979 23.2576 9.28183 23.2599 9.13142V8.11642C23.2599 7.68309 23.5549 7.53809 23.9999 7.53809C29.3332 9.27642 33.3332 14.2048 33.3332 19.9998C33.3332 25.7964 29.4815 30.7231 23.9999 32.4614Z" fill="white"></path></g><defs><clipPath id="clip0_2667_22878"><rect width="40" height="40" fill="white"></rect></clipPath></defs></svg>
