<svg width="25" height="25" viewBox="0 0 25 25" fill="none" xmlns="http://www.w3.org/2000/svg">
<path fill-rule="evenodd" clip-rule="evenodd" d="M2.99916 12.5001C2.99916 7.25343 7.25246 3.00014 12.4992 3.00014C17.7459 3.00014 21.9992 7.25343 21.9992 12.5001C21.9992 17.7468 17.7459 22.0001 12.4992 22.0001C7.25246 22.0001 2.99916 17.7468 2.99916 12.5001ZM12.5001 7.46442C12.9144 7.46442 13.2501 7.80021 13.2501 8.21442V11.7501H16.7859C17.2001 11.7501 17.5359 12.0859 17.5359 12.5001C17.5359 12.9144 17.2001 13.2501 16.7859 13.2501H13.2501V16.7859C13.2501 17.2001 12.9144 17.5359 12.5001 17.5359C12.0859 17.5359 11.7501 17.2001 11.7501 16.7859V13.2501H8.21442C7.80021 13.2501 7.46442 12.9144 7.46442 12.5001C7.46442 12.0859 7.80021 11.7501 8.21442 11.7501H11.7501V8.21442C11.7501 7.80021 12.0859 7.46442 12.5001 7.46442Z" fill="currentColor"/>
</svg>
