<svg xmlns="http://www.w3.org/2000/svg" viewBox="0 0 24 24" fill="none"><circle cx="12" cy="12" r="12" fill="#098CCE"></circle><path d="M10.072 5.78263C12.4643 5.78266 14.7495 5.77092 17.0346 5.78618C19.1464 5.80027 20.1371 7.44672 19.0885 9.29079C17.0981 12.7914 15.0567 16.2632 13.0169 19.7354C12.5066 20.6041 11.9255 20.6114 11.4199 19.7394C9.32828 16.1324 7.23844 12.5237 5.2066 8.88293C4.39414 7.42712 5.37828 5.85756 7.07307 5.79062C8.03565 5.75261 9.00094 5.78303 10.072 5.78263ZM11.1723 16.3615C11.5074 16.9246 11.8424 17.4876 12.2391 18.1542C14.1189 14.8724 15.9151 11.7582 17.6865 8.62999C18.2056 7.71314 17.9631 7.32912 16.8845 7.32462C13.7798 7.31168 10.6749 7.3124 7.57014 7.32404C6.43965 7.32828 6.27349 7.60715 6.81537 8.57828C8.23874 11.1292 9.67808 13.6712 11.1723 16.3615Z" fill="#F8FCFE"></path><path d="M11.1414 16.2894C9.67779 13.6715 8.23845 11.1295 6.81508 8.5786C6.2732 7.60746 6.43936 7.32859 7.56985 7.32435C10.6746 7.31271 13.7795 7.312 16.8842 7.32494C17.9628 7.32943 18.2054 7.71346 17.6862 8.6303C15.9149 11.7586 14.1186 14.8727 12.2388 18.1545C11.8421 17.4879 11.5071 16.9249 11.1414 16.2894ZM11.7136 9.64105C11.7136 9.64105 11.6209 9.63873 11.5946 9.45388C11.5946 9.01919 11.5946 8.5845 11.5946 8.06123C10.4438 8.39302 9.80624 8.83106 9.94324 9.9728C10.0272 10.6724 9.89856 11.3976 9.98445 12.0967C10.0292 12.4613 10.2679 12.8551 10.5298 13.13C11.3046 13.9429 12.106 13.6194 13.0144 13.0821C13.1043 13.0787 13.1941 13.0753 13.4446 13.0877C14.0694 12.8125 14.8355 12.7048 14.825 11.7488C14.8139 10.7405 14.9964 9.75664 13.7363 9.18416C12.8439 8.77866 12.4637 9.59752 11.7136 9.64105Z" fill="#098CCE"></path><path d="M12.8795 13.0796C12.1059 13.6197 11.3045 13.9432 10.5298 13.1303C10.2678 12.8554 10.0292 12.4616 9.98437 12.097C9.89849 11.3979 10.0271 10.6727 9.94316 9.97309C9.80617 8.83136 10.4437 8.39332 11.5945 8.06152C11.5945 8.58479 11.5945 9.01949 11.5915 9.64221C11.5368 10.9472 11.3626 12.111 12.7673 12.6265C12.8491 12.6565 12.8441 12.9231 12.8795 13.0796Z" fill="#F0F8FC"></path><path d="M11.8057 9.65152C12.4636 9.59794 12.8438 8.77908 13.7363 9.18458C14.9963 9.75706 14.8138 10.7409 14.8249 11.7492C14.8354 12.7052 14.0694 12.813 13.3499 12.9852C13.3026 11.6936 13.3532 10.5068 11.8946 10.0264C11.8307 10.0054 11.8338 9.78111 11.8057 9.65152Z" fill="#F9FCFE"></path><path d="M11.7595 9.64646C11.8337 9.78107 11.8307 10.0053 11.8946 10.0264C13.3532 10.5068 13.3026 11.6935 13.2695 12.9772C13.194 13.0757 13.1041 13.0791 12.9469 13.0811C12.8441 12.9232 12.8491 12.6566 12.7673 12.6266C11.3626 12.1111 11.5368 10.9473 11.6047 9.73471C11.6208 9.63912 11.7135 9.64144 11.7595 9.64646Z" fill="#1994D1"></path></svg>
